<?xml version="1.0" standalone="no"?>
<!DOCTYPE svg PUBLIC "-//W3C//DTD SVG 20010904//EN"
 "http://www.w3.org/TR/2001/REC-SVG-20010904/DTD/svg10.dtd">
<svg version="1.0" xmlns="http://www.w3.org/2000/svg"
 width="217.000000pt" height="173.000000pt" viewBox="0 0 217.000000 173.000000"
 preserveAspectRatio="xMidYMid meet">
<metadata>
Created by potrace 1.10, written by Peter Selinger 2001-2011
</metadata>
<g transform="translate(0.000000,173.000000) scale(0.100000,-0.100000)"
fill="#404536" stroke="none">
<path d="M1760 1518 c-77 -43 -225 -195 -299 -308 -115 -172 -207 -389 -248
-584 -24 -110 -24 -316 -1 -369 10 -20 23 -37 31 -37 9 0 37 50 73 131 l59
131 89 71 c49 40 94 75 99 78 6 4 7 15 3 24 -5 14 -20 5 -86 -50 -44 -37 -80
-65 -80 -63 0 15 113 245 129 262 11 12 45 35 75 51 59 32 65 39 41 49 -9 3
-34 -7 -57 -24 -23 -17 -43 -28 -46 -25 -3 2 8 30 23 62 15 32 33 72 40 88 10
22 32 39 84 65 65 32 81 47 66 62 -3 3 -31 -8 -62 -25 -35 -19 -54 -25 -51
-16 4 8 31 69 61 136 45 100 52 123 39 128 -8 3 -16 4 -17 3 -1 -2 -28 -65
-60 -140 -32 -76 -60 -136 -62 -135 -1 2 2 41 7 88 13 113 13 142 -2 137 -17
-6 -26 -56 -32 -188 -4 -96 -9 -127 -33 -184 l-28 -69 -8 113 c-4 62 -12 119
-19 127 -18 22 -25 -2 -17 -60 11 -77 10 -255 -1 -275 -5 -9 -25 -52 -44 -96
l-33 -78 -7 56 c-4 30 -6 88 -5 128 2 63 0 73 -15 76 -17 4 -18 -8 -15 -175
l3 -178 -54 -122 c-31 -71 -57 -117 -61 -111 -16 25 -20 158 -9 252 34 288
193 628 391 840 55 59 168 146 190 146 18 0 41 -110 34 -163 -18 -147 -58
-293 -125 -462 -42 -106 -166 -344 -221 -425 -53 -77 -151 -184 -190 -207 -27
-16 -40 -43 -21 -43 21 0 104 65 145 113 205 240 413 715 442 1010 8 80 -6
150 -38 189 l-22 27 -55 -31z"/>
<path d="M128 1072 c11 -7 11 -21 3 -67 -24 -131 -3 -264 63 -399 83 -170 223
-304 411 -396 136 -67 260 -100 407 -107 l117 -6 7 28 c18 72 -24 264 -86 394
-56 116 -114 194 -213 287 -130 122 -296 209 -472 249 -82 19 -257 31 -237 17z
m162 -32 c384 -61 699 -338 790 -695 26 -100 38 -231 21 -221 -6 4 -9 11 -6
16 3 4 -22 33 -55 62 l-61 54 -14 130 c-15 139 -34 207 -59 212 -21 4 -20 -5
3 -70 11 -29 23 -95 28 -145 l8 -93 -75 73 c-41 39 -76 72 -77 72 -1 1 -5 39
-9 85 -8 95 -56 240 -80 240 -19 0 -18 -4 15 -90 16 -42 30 -103 33 -138 l4
-63 -80 78 c-44 43 -82 79 -85 80 -2 1 -3 40 -2 85 3 101 -24 218 -49 218 -27
0 -28 -8 -7 -51 13 -28 21 -68 24 -132 l5 -92 -88 85 c-164 157 -182 173 -194
165 -14 -9 22 -48 162 -176 54 -49 92 -89 85 -89 -6 1 -75 16 -152 34 -82 20
-142 29 -144 23 -2 -5 2 -13 9 -17 11 -7 156 -43 285 -70 42 -9 63 -24 130
-86 l80 -75 -137 3 c-76 2 -138 3 -138 2 0 -1 3 -9 6 -18 5 -14 29 -16 153
-16 l146 -1 78 -73 78 -73 -123 -7 c-68 -4 -125 -10 -128 -12 -16 -16 41 -23
155 -18 l130 5 59 -56 c32 -31 57 -58 55 -59 -8 -6 -165 14 -226 29 -207 52
-354 135 -494 283 -137 143 -208 329 -194 506 4 43 9 85 12 92 6 17 36 17 123
4z"/>
</g>
</svg>
